<svg xmlns="http://www.w3.org/2000/svg" data-name="Icon Set" viewBox="0 0 24 30" x="0px" y="0px"><title>Résumeé</title><path d="M19.71,7.29l-5-5A1,1,0,0,0,14,2H5A1,1,0,0,0,4,3V21a1,1,0,0,0,1,1H19a1,1,0,0,0,1-1V8A1,1,0,0,0,19.71,7.29ZM19,21H5V3h9V7a1,1,0,0,0,1,1h4ZM8,6.75A1.64,1.64,0,0,1,9.5,5,1.64,1.64,0,0,1,11,6.75,1.64,1.64,0,0,1,9.5,8.5,1.64,1.64,0,0,1,8,6.75ZM6,12H18v1H6Zm0,2H18v1H6Zm0,2H18v1H6Zm0,2H16v1H6Zm7-7H6V10A5.6,5.6,0,0,1,9.5,9,5.6,5.6,0,0,1,13,10Z"/><text x="0" y="39" fill="#000000" font-size="5px" font-weight="bold" font-family="'Helvetica Neue', Helvetica, Arial-Unicode, Arial, Sans-serif">Created by Nathan Gathright</text><text x="0" y="44" fill="#000000" font-size="5px" font-weight="bold" font-family="'Helvetica Neue', Helvetica, Arial-Unicode, Arial, Sans-serif">from the Noun Project</text></svg>